<svg width="36" height="36" viewBox="0 0 36 36" fill="none" xmlns="http://www.w3.org/2000/svg">
<path d="M35.7 4.5C35.7 3.90326 35.4629 3.33097 35.0409 2.90901C34.619 2.48705 34.0467 2.25 33.4499 2.25H12.45C11.8532 2.25 11.2809 2.48705 10.859 2.90901C10.437 3.33097 10.2 3.90326 10.2 4.5V16.5C10.2 17.0967 10.437 17.669 10.859 18.091C11.2809 18.5129 11.8532 18.75 12.45 18.75H33.4499C34.0467 18.75 34.619 18.5129 35.0409 18.091C35.4629 17.669 35.7 17.0967 35.7 16.5V4.5ZM32.6999 15.375C32.6999 15.4745 32.6604 15.5698 32.5901 15.6402C32.5198 15.7105 32.4244 15.75 32.3249 15.75H13.575C13.4755 15.75 13.3801 15.7105 13.3098 15.6402C13.2395 15.5698 13.2 15.4745 13.2 15.375V5.67C13.2 5.57054 13.2395 5.47516 13.3098 5.40483C13.3801 5.33451 13.4755 5.295 13.575 5.295H32.3249C32.4244 5.295 32.5198 5.33451 32.5901 5.40483C32.6604 5.47516 32.6999 5.57054 32.6999 5.67V15.375Z" fill="#1A72DD"/>
<path d="M19.95 10.545C19.95 11.3407 20.266 12.1038 20.8286 12.6664C21.3912 13.229 22.1543 13.545 22.95 13.545C23.7456 13.545 24.5087 13.229 25.0713 12.6664C25.6339 12.1038 25.95 11.3407 25.95 10.545C25.95 9.74939 25.6339 8.98633 25.0713 8.42372C24.5087 7.86111 23.7456 7.54504 22.95 7.54504C22.1543 7.54504 21.3912 7.86111 20.8286 8.42372C20.266 8.98633 19.95 9.74939 19.95 10.545ZM30.3 24.795L25.005 26.55C24.9538 26.5652 24.9068 26.5921 24.8677 26.6286C24.8287 26.665 24.7986 26.71 24.78 26.76C24.539 27.2808 24.1537 27.7215 23.6698 28.0299C23.1859 28.3383 22.6238 28.5015 22.05 28.5H16.05C15.851 28.5 15.6603 28.421 15.5196 28.2804C15.379 28.1397 15.3 27.949 15.3 27.75C15.3 27.5511 15.379 27.3604 15.5196 27.2197C15.6603 27.0791 15.851 27 16.05 27H22.05C22.4478 27 22.8293 26.842 23.1106 26.5607C23.3919 26.2794 23.55 25.8979 23.55 25.5C23.55 25.1022 23.3919 24.7207 23.1106 24.4394C22.8293 24.1581 22.4478 24 22.05 24H16.8C15.076 22.6561 12.9825 21.8711 10.8 21.75H7.70996C6.76849 21.7858 5.84866 22.0427 5.02496 22.5L0.524957 24.765C0.465777 24.7974 0.416427 24.8452 0.382109 24.9032C0.34779 24.9613 0.329773 25.0276 0.329957 25.095V33.195C0.3313 33.2622 0.349955 33.3278 0.384118 33.3857C0.418281 33.4435 0.466793 33.4915 0.524957 33.525C0.581965 33.558 0.646631 33.5753 0.712457 33.5753C0.778284 33.5753 0.84295 33.558 0.899957 33.525L5.72996 30.525C5.91813 30.4072 6.13011 30.3327 6.3506 30.3067C6.57109 30.2808 6.79458 30.3041 7.00496 30.375C22.005 35.415 16.95 35.43 33.81 26.91C33.948 26.8559 34.0677 26.7635 34.1551 26.6437C34.2425 26.5239 34.2939 26.3816 34.3034 26.2337C34.3128 26.0857 34.2799 25.9381 34.2084 25.8081C34.137 25.6782 34.03 25.5713 33.9 25.5C33.412 25.0815 32.8238 24.7965 32.1929 24.6729C31.562 24.5494 30.9098 24.5914 30.3 24.795Z" fill="#1A72DD"/>
</svg>
