<svg width="36" height="36" viewBox="0 0 36 36" fill="none" xmlns="http://www.w3.org/2000/svg">
<g clip-path="url(#clip0_66_12515)">
<path d="M18 36L13.5 29.25H15.75V24.75H20.25V29.25H22.5L18 36ZM33.75 2.25V20.25H2.25V2.25H33.75ZM36 0H0V22.5H36V0Z" fill="#33D288"/>
<path d="M18 4.5C19.7902 4.5 21.5071 5.21116 22.773 6.47703C24.0388 7.7429 24.75 9.45979 24.75 11.25C24.75 13.0402 24.0388 14.7571 22.773 16.023C21.5071 17.2888 19.7902 18 18 18H29.25V15.75H31.5V6.75H29.25V4.5H18ZM11.25 11.25C11.25 9.45979 11.9612 7.7429 13.227 6.47703C14.4929 5.21116 16.2098 4.5 18 4.5H6.75V6.75H4.5V15.75H6.75V18H18C16.2098 18 14.4929 17.2888 13.227 16.023C11.9612 14.7571 11.25 13.0402 11.25 11.25Z" fill="#33D288"/>
</g>
<defs>
<clipPath id="clip0_66_12515">
<rect width="36" height="36" fill="white"/>
</clipPath>
</defs>
</svg>
