<svg width="32" height="32" viewBox="0 0 32 32" fill="none" xmlns="http://www.w3.org/2000/svg">
<path d="M11.5 1H2.5C2.10218 1 1.72064 1.15804 1.43934 1.43934C1.15804 1.72064 1 2.10218 1 2.5V11.5C1 11.8978 1.15804 12.2794 1.43934 12.5607C1.72064 12.842 2.10218 13 2.5 13H11.5C11.8978 13 12.2794 12.842 12.5607 12.5607C12.842 12.2794 13 11.8978 13 11.5V2.5C13 2.10218 12.842 1.72064 12.5607 1.43934C12.2794 1.15804 11.8978 1 11.5 1ZM11.5 19H2.5C2.10218 19 1.72064 19.158 1.43934 19.4393C1.15804 19.7206 1 20.1022 1 20.5V29.5C1 29.8978 1.15804 30.2794 1.43934 30.5607C1.72064 30.842 2.10218 31 2.5 31H11.5C11.8978 31 12.2794 30.842 12.5607 30.5607C12.842 30.2794 13 29.8978 13 29.5V20.5C13 20.1022 12.842 19.7206 12.5607 19.4393C12.2794 19.158 11.8978 19 11.5 19ZM29.5 1H20.5C20.1022 1 19.7206 1.15804 19.4393 1.43934C19.158 1.72064 19 2.10218 19 2.5V11.5C19 11.8978 19.158 12.2794 19.4393 12.5607C19.7206 12.842 20.1022 13 20.5 13H29.5C29.8978 13 30.2794 12.842 30.5607 12.5607C30.842 12.2794 31 11.8978 31 11.5V2.5C31 2.10218 30.842 1.72064 30.5607 1.43934C30.2794 1.15804 29.8978 1 29.5 1Z" fill="black" stroke="black" stroke-width="2" stroke-linejoin="round"/>
<path d="M19 19H31M25 25H31M19 31H31" stroke="black" stroke-width="2" stroke-linecap="round" stroke-linejoin="round"/>
</svg>
