<svg width="20" height="19" viewBox="0 0 20 19" fill="none" xmlns="http://www.w3.org/2000/svg">
<path d="M8.75586 0.701172C9.56364 0.433046 10.4363 0.433129 11.2441 0.701172C11.9175 0.924822 12.5564 1.48733 13.3496 2.59961C14.141 3.70936 15.0311 5.28336 16.2432 7.42871C17.4556 9.57339 18.3445 11.148 18.8896 12.4033C19.4012 13.5814 19.5743 14.4029 19.4717 15.0908L19.4473 15.2275C19.2681 16.0844 18.8307 16.8586 18.1973 17.4404H18.1963C17.669 17.9257 16.8743 18.2082 15.5381 18.3535C14.203 18.4987 12.4251 18.5 10 18.5C7.57481 18.5 5.79706 18.4986 4.46191 18.3535C3.20899 18.2173 2.43194 17.9614 1.90527 17.5303L1.80371 17.4414C1.16611 16.8523 0.728527 16.0786 0.552734 15.2285V15.2275L0.52832 15.0918C0.425314 14.404 0.598582 13.5826 1.11035 12.4043C1.65565 11.1488 2.54525 9.57405 3.75781 7.42871C4.96995 5.28323 5.85997 3.70937 6.65137 2.59961C7.44454 1.48737 8.08248 0.924819 8.75586 0.701172ZM9.99219 13C9.71605 13 9.49219 13.2239 9.49219 13.5C9.49239 13.776 9.71618 14 9.99219 14H10.001C10.277 14 10.5008 13.776 10.501 13.5C10.501 13.2582 10.3296 13.0562 10.1016 13.0098L10.001 13H9.99219ZM10 6C9.72395 6.00011 9.5 6.22393 9.5 6.5V10.5C9.5002 10.7759 9.72408 10.9999 10 11C10.276 11 10.4998 10.776 10.5 10.5V6.5L10.4902 6.39844C10.4435 6.17078 10.2415 6 10 6Z" fill="#FDF5EA" stroke="#EE9C2E" stroke-linecap="round" stroke-linejoin="round"/>
</svg>
