<svg width="33" height="30" viewBox="0 0 33 30" fill="none" xmlns="http://www.w3.org/2000/svg">
<path d="M31.5 0H1.5C1.10218 0 0.720644 0.158035 0.43934 0.43934C0.158035 0.720644 0 1.10218 0 1.5V13.5C0 13.8978 0.158035 14.2794 0.43934 14.5607C0.720644 14.842 1.10218 15 1.5 15H6V28.5C6 28.8978 6.15804 29.2794 6.43934 29.5607C6.72064 29.842 7.10218 30 7.5 30H25.5C25.8978 30 26.2794 29.842 26.5607 29.5607C26.842 29.2794 27 28.8978 27 28.5V15H31.5C31.8978 15 32.2794 14.842 32.5607 14.5607C32.842 14.2794 33 13.8978 33 13.5V1.5C33 1.10218 32.842 0.720644 32.5607 0.43934C32.2794 0.158035 31.8978 0 31.5 0ZM9 27V24C9.79565 24 10.5587 24.3161 11.1213 24.8787C11.6839 25.4413 12 26.2044 12 27H9ZM24 27H21C21 26.2044 21.3161 25.4413 21.8787 24.8787C22.4413 24.3161 23.2044 24 24 24V27ZM24 21C22.4087 21 20.8826 21.6321 19.7574 22.7574C18.6321 23.8826 18 25.4087 18 27H15C15 25.4087 14.3679 23.8826 13.2426 22.7574C12.1174 21.6321 10.5913 21 9 21V9H24V21ZM30 12H27V7.5C27 7.10218 26.842 6.72064 26.5607 6.43934C26.2794 6.15804 25.8978 6 25.5 6H7.5C7.10218 6 6.72064 6.15804 6.43934 6.43934C6.15804 6.72064 6 7.10218 6 7.5V12H3V3H30V12ZM16.5 19.5C17.39 19.5 18.26 19.2361 19.0001 18.7416C19.7401 18.2471 20.3169 17.5443 20.6575 16.7221C20.9981 15.8998 21.0872 14.995 20.9135 14.1221C20.7399 13.2492 20.3113 12.4474 19.682 11.818C19.0526 11.1887 18.2508 10.7601 17.3779 10.5865C16.505 10.4128 15.6002 10.5019 14.7779 10.8425C13.9557 11.1831 13.2529 11.7599 12.7584 12.4999C12.2639 13.24 12 14.11 12 15C12 16.1935 12.4741 17.3381 13.318 18.182C14.1619 19.0259 15.3065 19.5 16.5 19.5ZM16.5 13.5C16.7967 13.5 17.0867 13.588 17.3334 13.7528C17.58 13.9176 17.7723 14.1519 17.8858 14.426C17.9994 14.7001 18.0291 15.0017 17.9712 15.2926C17.9133 15.5836 17.7704 15.8509 17.5607 16.0607C17.3509 16.2704 17.0836 16.4133 16.7926 16.4712C16.5017 16.5291 16.2001 16.4994 15.926 16.3858C15.6519 16.2723 15.4176 16.08 15.2528 15.8334C15.088 15.5867 15 15.2967 15 15C15 14.6022 15.158 14.2206 15.4393 13.9393C15.7206 13.658 16.1022 13.5 16.5 13.5Z" fill="#FF6D70"/>
</svg>
